<?xml version="1.0" encoding="UTF-8" standalone="no"?>
<!-- Created with Inkscape (http://www.inkscape.org/) -->

<svg
   width="206.25681"
   height="500.00003"
   viewBox="0 0 206.25681 500.00003"
   version="1.1"
   id="svg1"
   xmlns="http://www.w3.org/2000/svg"
   xmlns:svg="http://www.w3.org/2000/svg"
   xmlns:rdf="http://www.w3.org/1999/02/22-rdf-syntax-ns#"
   xmlns:cc="http://creativecommons.org/ns#"
   xmlns:dc="http://purl.org/dc/elements/1.1/">
  <defs
     id="defs1">
    <rect
       x="79.617455"
       y="44.708263"
       width="655.10278"
       height="141.66313"
       id="rect19" />
    <rect
       x="160"
       y="40"
       width="693"
       height="124"
       id="rect4" />
    <rect
       x="203"
       y="234"
       width="510"
       height="117"
       id="rect1" />
    <rect
       x="160"
       y="40"
       width="693"
       height="124"
       id="rect4-24" />
    <rect
       x="160"
       y="40"
       width="693"
       height="124"
       id="rect4-3" />
    <rect
       x="160"
       y="40"
       width="693"
       height="124"
       id="rect4-8" />
    <rect
       x="79.617455"
       y="44.708263"
       width="619.59167"
       height="124.34066"
       id="rect21" />
    <clipPath
       clipPathUnits="userSpaceOnUse"
       id="clipath_lpe_path-effect76">
      <path
         style="font-size:64px;font-family:darloune;-inkscape-font-specification:darloune;text-align:center;text-anchor:middle;white-space:pre;display:none;fill:#ffffff;stroke:#ffffff;stroke-width:0"
         d="m 444.15697,356.66207 q 0.576,-0.448 0.96,-0.064 0.448,0.448 -0.064,0.96 -1.728,1.664 -3.904,3.2 -2.176,1.472 -4.48,2.816 -2.304,1.28 -4.672,2.496 -2.368,1.216 -4.544,2.304 -0.704,2.56 -1.536,5.44 -0.832,2.88 -1.984,5.696 -1.088,2.752 -2.624,5.248 -1.472,2.56 -3.456,4.352 -2.944,2.688 -5.824,2.944 -2.88,0.32 -4.608,-1.152 -1.728,-1.408 -1.664,-4.352 0.064,-2.944 3.008,-6.784 2.432,-3.2 6.4,-5.824 3.968,-2.624 8.512,-5.056 1.344,-4.864 2.24,-8.96 -0.832,1.152 -1.664,2.048 -0.768,0.832 -1.472,1.472 -1.856,1.664 -3.264,1.92 -1.472,0.32 -2.816,-0.384 -1.28,-0.768 -1.664,-2.24 -0.448,-1.472 0,-3.008 0.384,-1.6 1.408,-3.072 0.896,-1.344 2.112,-2.432 1.28,-1.088 2.624,-1.792 1.408,-0.768 2.88,-0.96 1.472,-0.192 2.816,0.256 0.768,0.32 1.344,0.832 0.576,0.512 0.704,1.408 0.064,0.32 -0.128,0.576 -0.192,0.192 -0.448,0.256 -0.256,0.064 -0.512,0 -0.192,-0.128 -0.256,-0.448 -0.192,-1.088 -1.216,-1.28 -0.96,-0.256 -1.856,0.064 -1.152,0.384 -2.24,1.344 -1.024,0.896 -1.92,2.112 -0.896,1.152 -1.536,2.496 -0.64,1.344 -0.896,2.496 -0.32,1.408 0,1.984 0.32,0.576 0.96,0.576 0.64,0 1.472,-0.448 0.896,-0.448 1.664,-1.152 1.024,-0.896 2.24,-2.368 1.216,-1.536 2.496,-3.712 0.256,-0.512 0.704,-0.64 0.448,-0.192 0.96,0.128 0.512,0.384 1.024,1.344 0.512,0.96 0.384,1.536 l -1.92,7.936 q 1.984,-1.024 4.16,-2.112 2.176,-1.152 4.288,-2.368 2.176,-1.28 4.16,-2.688 2.048,-1.408 3.648,-2.944 z m -20.928,13.952 q -4.16,2.24 -7.68,4.608 -3.584,2.368 -5.76,5.248 -2.304,3.008 -2.496,5.312 -0.256,2.368 0.768,3.648 0.96,1.344 2.816,1.408 1.856,0.064 3.712,-1.6 1.344,-1.152 2.496,-3.136 1.216,-1.984 2.304,-4.48 1.088,-2.496 2.048,-5.312 0.96,-2.816 1.792,-5.696 z"
         id="path76"
         aria-label="g" />
      <path
         id="lpe_path-effect76"
         style="font-size:64px;font-family:darloune;-inkscape-font-specification:darloune;text-align:center;text-anchor:middle;white-space:pre;fill:#ffffff;stroke:#ffffff;stroke-width:0"
         class="powerclip"
         d="m 401.92188,323.71094 h 41.00781 v 85.16797 h -41.00781 z m 42.23509,32.95113 q -1.6,1.536 -3.648,2.944 -1.984,1.408 -4.16,2.688 -2.112,1.216 -4.288,2.368 -2.176,1.088 -4.16,2.112 l 1.92,-7.936 q 0.128,-0.576 -0.384,-1.536 -0.512,-0.96 -1.024,-1.344 -0.512,-0.32 -0.96,-0.128 -0.448,0.128 -0.704,0.64 -1.28,2.176 -2.496,3.712 -1.216,1.472 -2.24,2.368 -0.768,0.704 -1.664,1.152 -0.832,0.448 -1.472,0.448 -0.64,0 -0.96,-0.576 -0.32,-0.576 0,-1.984 0.256,-1.152 0.896,-2.496 0.64,-1.344 1.536,-2.496 0.896,-1.216 1.92,-2.112 1.088,-0.96 2.24,-1.344 0.896,-0.32 1.856,-0.064 1.024,0.192 1.216,1.28 0.064,0.32 0.256,0.448 0.256,0.064 0.512,0 0.256,-0.064 0.448,-0.256 0.192,-0.256 0.128,-0.576 -0.128,-0.896 -0.704,-1.408 -0.576,-0.512 -1.344,-0.832 -1.344,-0.448 -2.816,-0.256 -1.472,0.192 -2.88,0.96 -1.344,0.704 -2.624,1.792 -1.216,1.088 -2.112,2.432 -1.024,1.472 -1.408,3.072 -0.448,1.536 0,3.008 0.384,1.472 1.664,2.24 1.344,0.704 2.816,0.384 1.408,-0.256 3.264,-1.92 0.704,-0.64 1.472,-1.472 0.832,-0.896 1.664,-2.048 -0.896,4.096 -2.24,8.96 -4.544,2.432 -8.512,5.056 -3.968,2.624 -6.4,5.824 -2.944,3.84 -3.008,6.784 -0.064,2.944 1.664,4.352 1.728,1.472 4.608,1.152 2.88,-0.256 5.824,-2.944 1.984,-1.792 3.456,-4.352 1.536,-2.496 2.624,-5.248 1.152,-2.816 1.984,-5.696 0.832,-2.88 1.536,-5.44 2.176,-1.088 4.544,-2.304 2.368,-1.216 4.672,-2.496 2.304,-1.344 4.48,-2.816 2.176,-1.536 3.904,-3.2 0.512,-0.512 0.064,-0.96 -0.384,-0.384 -0.96,0.064 z m -20.928,13.952 q -4.16,2.24 -7.68,4.608 -3.584,2.368 -5.76,5.248 -2.304,3.008 -2.496,5.312 -0.256,2.368 0.768,3.648 0.96,1.344 2.816,1.408 1.856,0.064 3.712,-1.6 1.344,-1.152 2.496,-3.136 1.216,-1.984 2.304,-4.48 1.088,-2.496 2.048,-5.312 0.96,-2.816 1.792,-5.696 z" />
    </clipPath>
  </defs>
  <metadata
     id="metadata1">
    <rdf:RDF>
      <cc:Work
         rdf:about="">
        <dc:format>image/svg+xml</dc:format>
        <dc:type
           rdf:resource="http://purl.org/dc/dcmitype/StillImage" />
      </cc:Work>
    </rdf:RDF>
  </metadata>
  <g
     id="layer2"
     style="display:none"
     transform="translate(-16.313206,-150.00005)">
    <g
       id="layer1"
       transform="translate(0,-43.24676)">
      <g
         id="g1"
         transform="translate(2.5280144,-119.95164)"
         style="display:inline">
        <text
           xml:space="preserve"
           id="text3-99"
           style="font-style:normal;font-variant:normal;font-weight:normal;font-stretch:normal;font-size:64px;font-family:'LT Perfume';-inkscape-font-specification:'LT Perfume';text-align:center;white-space:pre;shape-inside:url(#rect4-24);display:inline;fill:#ffffff;stroke:#000000;stroke-width:0;stroke-linejoin:bevel"
           transform="translate(-106.50001,229.6)"><tspan
             x="229.18805"
             y="99.2"
             id="tspan2"><tspan
               style="font-family:MintSans;-inkscape-font-specification:MintSans;fill:#000000"
               id="tspan1">GREG BERTHOLD</tspan></tspan></text>
      </g>
    </g>
    <text
       xml:space="preserve"
       id="text3-2"
       style="font-style:normal;font-variant:normal;font-weight:normal;font-stretch:normal;font-size:64px;font-family:'LT Perfume';-inkscape-font-specification:'LT Perfume';text-align:center;white-space:pre;shape-inside:url(#rect4-8);display:inline;fill:#ffffff;stroke:#000000;stroke-width:0;stroke-linejoin:bevel"
       transform="translate(-106.5,393.94197)"><tspan
         x="267.97205"
         y="97.454545"
         id="tspan4"><tspan
           style="font-family:'TT Chocolates Trl';-inkscape-font-specification:'TT Chocolates Trl';fill:#000000"
           id="tspan3">GREG BERTHOLD</tspan></tspan></text>
    <text
       xml:space="preserve"
       id="text3-0"
       style="font-style:normal;font-variant:normal;font-weight:normal;font-stretch:normal;font-size:64px;font-family:'LT Perfume';-inkscape-font-specification:'LT Perfume';text-align:center;white-space:pre;shape-inside:url(#rect4-3);display:inline;fill:#ffffff;stroke:#000000;stroke-width:0;stroke-linejoin:bevel"
       transform="translate(-106.46802,486.94618)"><tspan
         x="259.10785"
         y="98.831276"
         id="tspan6"><tspan
           style="font-family:Cabin;-inkscape-font-specification:Cabin;fill:#000000"
           id="tspan5">GREG BERTHOLD</tspan></tspan></text>
    <text
       xml:space="preserve"
       id="text3"
       style="font-style:normal;font-variant:normal;font-weight:normal;font-stretch:normal;font-size:96px;font-family:'LT Perfume';-inkscape-font-specification:'LT Perfume';text-align:center;white-space:pre;shape-inside:url(#rect4);display:inline;fill:#ffffff;stroke:#000000;stroke-width:0;stroke-linejoin:bevel"
       transform="translate(-106.50001,159.3735)"><tspan
         x="261.94003"
         y="124"
         id="tspan8"><tspan
           style="font-family:'Bebas Kai';-inkscape-font-specification:'Bebas Kai';fill:#000000"
           id="tspan7">GREG BERTHOLD</tspan></tspan></text>
    <text
       xml:space="preserve"
       id="text1"
       style="font-size:96px;font-family:'Simplisicky Fill';-inkscape-font-specification:'Simplisicky Fill';text-align:center;white-space:pre;shape-inside:url(#rect1);display:inline;fill:#ffffff;stroke:#000000;stroke-width:0;stroke-linejoin:bevel"
       transform="translate(-57.976562,77.050316)"><tspan
         x="269.14062"
         y="322.78125"
         id="tspan10"><tspan
           style="font-family:'Galata Sans';-inkscape-font-specification:'Galata Sans';fill:#000000"
           id="tspan9">greg berthold</tspan></tspan></text>
  </g>
  <g
     id="layer3"
     style="display:none"
     transform="translate(-16.313206,-150.00005)">
    <g
       id="layer6">
      <text
         xml:space="preserve"
         id="text18"
         style="font-style:normal;font-variant:normal;font-weight:normal;font-stretch:normal;font-size:96px;font-family:'Libel Suit';-inkscape-font-specification:'Libel Suit';text-align:center;white-space:pre;shape-inside:url(#rect19);display:inline;fill:#000000;stroke:#000000;stroke-width:0;stroke-linejoin:bevel"
         transform="translate(-7.1689124,354.76226)"><tspan
           x="182.96097"
           y="132.45298"
           id="tspan11">GREG BERTHOLD</tspan></text>
    </g>
    <g
       id="layer4">
      <g
         id="layer5">
        <text
           xml:space="preserve"
           id="text20"
           style="font-style:normal;font-variant:normal;font-weight:normal;font-stretch:normal;font-size:96px;font-family:'Bebas Kai';-inkscape-font-specification:'Bebas Kai';text-align:center;white-space:pre;shape-inside:url(#rect21);display:inline;fill:#000000;stroke:#000000;stroke-width:0;stroke-linejoin:bevel"
           transform="translate(10.586902,250.89178)"><tspan
             x="144.85312"
             y="128.70898"
             id="tspan12">GREG BERTHOLD</tspan></text>
      </g>
    </g>
  </g>
  <g
     id="layer7"
     transform="translate(-16.313206,-150.00005)">
    <g
       id="g73"
       transform="matrix(6.6517694,0,0,6.6517694,-2357.2481,-1974.4292)">
      <path
         id="path72"
         style="font-variation-settings:normal;opacity:1;vector-effect:none;fill:#000000;fill-opacity:1;fill-rule:evenodd;stroke:#ffffff;stroke-width:0;stroke-linecap:butt;stroke-linejoin:miter;stroke-miterlimit:4;stroke-dasharray:none;stroke-dashoffset:0;stroke-opacity:1;-inkscape-stroke:none;paint-order:normal;stop-color:#000000;stop-opacity:1"
         d="m 406.92188,330.82761 v 70.93463 a 2.1166667,2.1166667 45 0 0 2.11667,2.11667 h 13.91457 c 9.216,0 14.97657,-5.56904 14.97657,-15.45703 v -12 c 0,-6.624 -2.30394,-9.98354 -6.33594,-11.51954 3.648,-1.53599 5.47266,-4.70366 5.47266,-10.84765 v -10.46485 c 0,-9.31199 -5.66487,-14.8789 -14.88086,-14.8789 l -13.147,0 a 2.1166667,2.1166667 135 0 0 -2.11667,2.11667 z"
         clip-path="url(#clipath_lpe_path-effect76)"
         transform="translate(-50.090312,-9.3328738)" />
    </g>
  </g>
</svg>
