<?xml version="1.0" encoding="UTF-8" standalone="no"?>
<!-- Created with Inkscape (http://www.inkscape.org/) -->

<svg
   width="852.69891mm"
   height="427.67245mm"
   viewBox="0 0 852.69891 427.67245"
   version="1.1"
   id="svg1"
   xmlns="http://www.w3.org/2000/svg"
   xmlns:svg="http://www.w3.org/2000/svg"
   xmlns:rdf="http://www.w3.org/1999/02/22-rdf-syntax-ns#"
   xmlns:cc="http://creativecommons.org/ns#"
   xmlns:dc="http://purl.org/dc/elements/1.1/">
  <defs
     id="defs1">
    <rect
       x="616"
       y="1440"
       width="3316"
       height="604"
       id="rect1" />
    <rect
       x="616"
       y="1440"
       width="3316"
       height="604"
       id="rect2" />
    <rect
       x="616"
       y="1440"
       width="3316"
       height="604"
       id="rect1-5" />
    <rect
       x="616"
       y="1440"
       width="3316"
       height="604"
       id="rect3" />
    <rect
       x="616"
       y="1440"
       width="3316"
       height="604"
       id="rect4" />
    <rect
       x="616"
       y="1440"
       width="3316"
       height="604"
       id="rect10" />
    <rect
       x="616"
       y="1440"
       width="3316"
       height="604"
       id="rect11" />
    <rect
       x="616"
       y="1440"
       width="3316"
       height="604"
       id="rect12" />
    <rect
       x="616"
       y="1440"
       width="3316"
       height="604"
       id="rect13" />
    <rect
       x="616"
       y="1440"
       width="3316"
       height="604"
       id="rect14" />
  </defs>
  <metadata
     id="metadata1">
    <rdf:RDF>
      <cc:Work
         rdf:about="">
        <dc:format>image/svg+xml</dc:format>
        <dc:type
           rdf:resource="http://purl.org/dc/dcmitype/StillImage" />
      </cc:Work>
    </rdf:RDF>
  </metadata>
  <g
     id="layer1"
     style="display:none"
     transform="translate(-86.126833,-209.89875)">
    <text
       xml:space="preserve"
       transform="matrix(0.26458333,0,0,0.26458333,-81.724834,165.87328)"
       id="text3"
       style="font-size:400px;line-height:443.191px;font-family:'Libel Suit';-inkscape-font-specification:'Libel Suit';white-space:pre;shape-inside:url(#rect3);display:inline;fill:#0c1713;stroke:#ffffff;stroke-width:0"><tspan
         x="616"
         y="1777.1955"
         id="tspan6"><tspan
           dx="0 0 0 0 0 0 0 0 0 0 0 0 0 0 0 0 0.00012207031 -0.00015258789"
           id="tspan5">MUSICFOODCODEDESIGNART</tspan></tspan></text>
    <text
       xml:space="preserve"
       transform="matrix(0.26458333,0,0,0.26458333,-81.724834,80.412862)"
       id="text2"
       style="font-size:400px;line-height:443.191px;font-family:'Libel Suit';-inkscape-font-specification:'Libel Suit';white-space:pre;shape-inside:url(#rect2);display:inline;fill:#0c1713;stroke:#ffffff;stroke-width:0"><tspan
         x="616"
         y="1777.1955"
         id="tspan12"><tspan
           dx="0 0 0 0 0 0 0 0 0 0 0 0 0.00012207031 0 0 0 0.00012207031 -0.00012207031 0 0 0.00012207031"
           id="tspan11">DESIGNARTMUSICFOODCODE</tspan></tspan></text>
    <text
       xml:space="preserve"
       transform="matrix(0.26458333,0,0,0.26458333,-81.195667,-5.0475549)"
       id="text1"
       style="font-size:400px;line-height:443.191px;font-family:'Libel Suit';-inkscape-font-specification:'Libel Suit';white-space:pre;shape-inside:url(#rect1);display:inline;fill:#0c1713;stroke:#ffffff;stroke-width:0"><tspan
         x="616"
         y="1777.1955"
         id="tspan27"><tspan
           dx="0 0 0 0 0 0 0 0 0 0 0 0 0 0 0 0 -0.00012207031 0 0 0 -0.00012207031 0.00012207031"
           id="tspan13">CODEDESIGNARTMUSICFOOD</tspan></tspan></text>
    <text
       xml:space="preserve"
       transform="matrix(0.26458333,0,0,0.26458333,-78.7615,-90.507973)"
       id="text1-2"
       style="font-size:400px;line-height:443.191px;font-family:'Libel Suit';-inkscape-font-specification:'Libel Suit';white-space:pre;shape-inside:url(#rect1-5);display:inline;fill:#0c1713;stroke:#ffffff;stroke-width:0"><tspan
         x="616"
         y="1777.1955"
         id="tspan29"><tspan
           dx="0 0 0 0 0 0 0 0 0 0 0 0 0 0 0.00012207031 0 0 0 0 -0.00012207031"
           id="tspan28">ARTMUSICFOODCODEDESIGN</tspan></tspan></text>
    <text
       xml:space="preserve"
       transform="matrix(0.26458333,0,0,0.26458333,-81.724834,-175.96839)"
       id="text4"
       style="font-size:400px;line-height:443.191px;font-family:'Libel Suit';-inkscape-font-specification:'Libel Suit';white-space:pre;shape-inside:url(#rect4);display:inline;fill:#0c1713;stroke:#ffffff;stroke-width:0"><tspan
         x="616"
         y="1777.1955"
         id="tspan31"><tspan
           dx="0 0 0 0 0 0 0 0 0 0 0 0 0 0 0 0 0 0 0 0 -0.00012207031"
           id="tspan30">FOODCODEDESIGNARTMUSIC</tspan></tspan></text>
  </g>
  <g
     id="g10"
     style="display:none"
     transform="translate(-86.126833,-209.89875)">
    <text
       xml:space="preserve"
       transform="matrix(0.26458333,0,0,0.26458333,-81.724834,165.87328)"
       id="text5"
       style="font-size:400px;line-height:443.191px;font-family:'Libel Suit';-inkscape-font-specification:'Libel Suit';white-space:pre;shape-inside:url(#rect10);display:inline;fill:#0c1713;stroke:#ffffff;stroke-width:0"><tspan
         x="616"
         y="1777.1955"
         id="tspan35"><tspan
           style="fill:#ffffff"
           id="tspan32">MUSIC</tspan><tspan
           style="fill:#f19a3e"
           id="tspan33">FOOD</tspan><tspan
           dx="0 0 0 0 0 0 0 -0.00012207031 0 0 0 -0.00018310547 0.00015258789"
           style="fill:#ffffff"
           id="tspan34">CODEDESIGNART</tspan></tspan></text>
    <text
       xml:space="preserve"
       transform="matrix(0.26458333,0,0,0.26458333,-81.724834,80.412862)"
       id="text6"
       style="font-size:400px;line-height:443.191px;font-family:'Libel Suit';-inkscape-font-specification:'Libel Suit';white-space:pre;shape-inside:url(#rect11);display:inline;fill:#0c1713;stroke:#ffffff;stroke-width:0"><tspan
         x="616"
         y="1777.1955"
         id="tspan39"><tspan
           style="fill:#ffffff"
           id="tspan36">DESIGNART</tspan><tspan
           style="fill:#e40066"
           id="tspan37">MUSIC</tspan><tspan
           dx="0 0 0 0 -0.00015258789 0 0.00024414062 -0.00015258789"
           style="fill:#ffffff"
           id="tspan38">FOODCODE</tspan></tspan></text>
    <text
       xml:space="preserve"
       transform="matrix(0.26458333,0,0,0.26458333,-81.195667,-5.0475549)"
       id="text7"
       style="font-size:400px;line-height:443.191px;font-family:'Libel Suit';-inkscape-font-specification:'Libel Suit';white-space:pre;shape-inside:url(#rect12);display:inline;fill:#0c1713;stroke:#ffffff;stroke-width:0"><tspan
         x="616"
         y="1777.1955"
         id="tspan42"><tspan
           style="fill:#226ce0"
           id="tspan40">CODE</tspan><tspan
           dx="0 0 0 0 0 0 0 0 0 0 0 0 0.00024414062 0 0 0 0 -0.00024414062"
           style="fill:#ffffff"
           id="tspan41">DESIGNARTMUSICFOOD</tspan></tspan></text>
    <text
       xml:space="preserve"
       transform="matrix(0.26458333,0,0,0.26458333,-78.7615,-90.507973)"
       id="text8"
       style="font-size:400px;line-height:443.191px;font-family:'Libel Suit';-inkscape-font-specification:'Libel Suit';white-space:pre;shape-inside:url(#rect13);display:inline;fill:#0c1713;stroke:#ffffff;stroke-width:0"><tspan
         x="616"
         y="1777.1955"
         id="tspan45"><tspan
           dx="0 0 0 0 0 0 0 0 0 0 0 0 0 0 0.00012207031"
           style="fill:#ffffff"
           id="tspan43">ARTMUSICFOODCODE</tspan><tspan
           dx="0 0 0 0.00012207031 -0.00015258789"
           style="fill:#43c59e"
           id="tspan44">DESIGN</tspan></tspan></text>
    <text
       xml:space="preserve"
       transform="matrix(0.26458333,0,0,0.26458333,-81.724834,-175.96839)"
       id="text10"
       style="font-size:400px;line-height:443.191px;font-family:'Libel Suit';-inkscape-font-specification:'Libel Suit';white-space:pre;shape-inside:url(#rect14);display:inline;fill:#0c1713;stroke:#ffffff;stroke-width:0"><tspan
         x="616"
         y="1777.1955"
         id="tspan49"><tspan
           style="fill:#ffffff"
           id="tspan46">FOODCODEDESIGN</tspan><tspan
           style="fill:#d264b6"
           id="tspan47">ART</tspan><tspan
           dx="0 0 0 0.00012207031 -0.00015258789"
           style="fill:#ffffff"
           id="tspan48">MUSIC</tspan></tspan></text>
  </g>
  <g
     id="g43"
     transform="translate(-86.126833,-209.89875)">
    <g
       id="text29"
       style="font-size:400px;line-height:443.191px;font-family:'Libel Suit';-inkscape-font-specification:'Libel Suit';white-space:pre;fill:#0c1713;stroke:#ffffff;stroke-width:0"
       transform="matrix(0.26458333,0,0,0.26458333,-81.619,165.87328)"
       aria-label="MUSICFOODCODEDESIGNART">
      <path
         style="fill:#333333"
         d="m 634.4,1463.9955 v 313.2 h 32.8 v -204.8 l 39.2,204.8 h 34 l 38.4,-202 v 202 h 32.8 v -313.2 h -36.8 l -51.6,248.4 -48.8,-248.4 z m 213.19994,0 v 256 c 0,39.2 28,62.8 64,62.8 36.4,0 64.8,-23.6 64.8,-62.8 v -256 h -36 v 255.6 c 0,18 -11.6,27.6 -28.4,27.6 -16,0 -27.6,-9.6 -27.6,-27.6 v -255.6 z m 222.79996,-5.6 c -38.4,0 -63.6,26 -63.6,67.6 0,20 5.6,41.6 23.6,70 14.8,23.2 39.6,51.6 51.6,69.6 11.6,18 15.6,32.4 15.6,46.8 0,23.2 -10,36.8 -30,36.8 -18.8,0 -29.6,-13.2 -29.6,-28 v -7.6 l -34,-8.8 v 16.8 c 0,34 24.8,61.2 66,61.2 42.8,0 62.8,-29.2 62.8,-75.2 0,-22.8 -5.2,-38.8 -17.6,-58.4 -14.4,-23.2 -43.6,-59.6 -58,-79.6 -10.4,-14.8 -16.4,-28 -16.4,-43.2 0,-18.4 9.2,-33.6 28.8,-33.6 17.2,0 27.2,11.6 27.2,29.6 v 8.4 h 34 v -11.2 c 0,-36.4 -22.8,-61.2 -60.4,-61.2 z m 92.3998,5.6 v 313.2 h 36.8 v -313.2 z m 107.9999,57.2 c 0,-18 10.8,-27.2 27.6,-27.2 16.4,0 26.4,9.2 26.4,27.2 v 9.6 h 34 v -10.4 c 0,-38.4 -23.6,-62 -60.8,-62 -37.2,0 -63.6,23.6 -63.6,62 v 200.4 c 0,38.4 27.2,62 61.6,62 34.8,0 62.8,-23.6 62.8,-62 v -16 l -34,8.8 v 6.4 c 0,18 -11.2,27.2 -27.2,27.2 -16,0 -26.8,-9.2 -26.8,-27.2 z"
         id="path47" />
      <path
         style="fill:#f19a3e"
         d="m 1387.9995,1463.9955 v 313.2 h 36.8 v -133.2 h 52.4 v -35.6 h -52.4 v -108.8 h 71.2 v -35.6 z m 255.6003,57.2 c 0,-39.2 -28.8,-62.8 -64.4,-62.8 -36,0 -64.4,23.6 -64.4,62.8 v 198.8 c 0,39.2 28.4,62.8 64.4,62.8 35.6,0 64.4,-23.6 64.4,-62.8 z m -92.4,0.4 c 0,-18 11.6,-27.6 28,-27.6 16.4,0 28,9.6 28,27.6 v 198 c 0,18 -11.6,27.6 -28,27.6 -16.4,0 -28,-9.6 -28,-27.6 z m 253.9997,-0.4 c 0,-39.2 -28.8,-62.8 -64.4,-62.8 -36,0 -64.4,23.6 -64.4,62.8 v 198.8 c 0,39.2 28.4,62.8 64.4,62.8 35.6,0 64.4,-23.6 64.4,-62.8 z m -92.4,0.4 c 0,-18 11.6,-27.6 28,-27.6 16.4,0 28,9.6 28,27.6 v 198 c 0,18 -11.6,27.6 -28,27.6 -16.4,0 -28,-9.6 -28,-27.6 z m 127.1997,-57.6 v 313.2 h 64.8 c 38.4,0 62.4,-23.2 62.4,-72 v -169.2 c 0,-48.8 -24,-72 -62.4,-72 z m 36.8,35.6 h 25.2 c 19.6,0 28.8,11.2 28.8,34 v 174 c 0,22.8 -9.2,34 -28.8,34 h -25.2 z"
         id="path48" />
      <path
         style="fill:#333333"
         d="m 2036.3995,1521.1955 c 0,-18 10.8,-27.2 27.6,-27.2 16.4,0 26.4,9.2 26.4,27.2 v 9.6 h 34 v -10.4 c 0,-38.4 -23.6,-62 -60.8,-62 -37.2,0 -63.6,23.6 -63.6,62 v 200.4 c 0,38.4 27.2,62 61.6,62 34.8,0 62.8,-23.6 62.8,-62 v -16 l -34,8.8 v 6.4 c 0,18 -11.2,27.2 -27.2,27.2 -16,0 -26.8,-9.2 -26.8,-27.2 z m 240.8001,0 c 0,-39.2 -28.8,-62.8 -64.4,-62.8 -36,0 -64.4,23.6 -64.4,62.8 v 198.8 c 0,39.2 28.4,62.8 64.4,62.8 35.6,0 64.4,-23.6 64.4,-62.8 z m -92.4,0.4 c 0,-18 11.6,-27.6 28,-27.6 16.4,0 28,9.6 28,27.6 v 198 c 0,18 -11.6,27.6 -28,27.6 -16.4,0 -28,-9.6 -28,-27.6 z m 127.1998,-57.6 v 313.2 h 64.8 c 38.4,0 62.4,-23.2 62.4,-72 v -169.2 c 0,-48.8 -24,-72 -62.4,-72 z m 36.8,35.6 h 25.2 c 19.6,0 28.8,11.2 28.8,34 v 174 c 0,22.8 -9.2,34 -28.8,34 h -25.2 z m 125.2002,-35.6 v 313.2 h 103.6 v -35.6 h -66.8 v -108 h 47.2 v -35.6 h -47.2 v -98.4 h 66.8 v -35.6 z m 133.5999,0 v 313.2 h 64.8 c 38.4,0 62.4,-23.2 62.4,-72 v -169.2 c 0,-48.8 -24,-72 -62.4,-72 z m 36.8,35.6 h 25.2 c 19.6,0 28.8,11.2 28.8,34 v 174 c 0,22.8 -9.2,34 -28.8,34 h -25.2 z m 125.2002,-35.6 v 313.2 h 103.6 v -35.6 h -66.8 v -108 h 47.2 v -35.6 h -47.2 v -98.4 h 66.8 v -35.6 z m 191.5999,-5.6 c -38.4,0 -63.6,26 -63.6,67.6 0,20 5.6,41.6 23.6,70 14.8,23.2 39.6,51.6 51.6,69.6 11.6,18 15.6,32.4 15.6,46.8 0,23.2 -10,36.8 -30,36.8 -18.8,0 -29.6,-13.2 -29.6,-28 v -7.6 l -34,-8.8 v 16.8 c 0,34 24.8,61.2 66,61.2 42.8,0 62.8,-29.2 62.8,-75.2 0,-22.8 -5.2,-38.8 -17.6,-58.4 -14.4,-23.2 -43.6,-59.6 -58,-79.6 -10.4,-14.8 -16.4,-28 -16.4,-43.2 0,-18.4 9.2,-33.6 28.8,-33.6 17.2,0 27.2,11.6 27.2,29.6 v 8.4 h 34 v -11.2 c 0,-36.4 -22.8,-61.2 -60.4,-61.2 z m 92.3999,5.6 v 313.2 h 36.8 v -313.2 z m 107.1998,57.2 c 0,-18 11.2,-27.2 28,-27.2 16,0 26.8,9.2 26.8,27.2 v 9.6 h 34 v -10.4 c 0,-38.4 -24.4,-62 -61.2,-62 -36.8,0 -63.2,23.6 -63.2,62 v 200.4 c 0,38.4 23.6,62 55.6,62 18.4,0 33.2,-8 43.2,-19.2 l 1.6,13.6 h 22.8 v -173.6 h -63.2 v 33.2 h 31.2 v 83.2 c 0,18 -12.8,27.2 -28.8,27.2 -16,0 -26.8,-9.2 -26.8,-27.2 z m 123.6,-57.2 v 313.2 h 32 v -230.4 l 60.4,230.4 h 32.8 v -313.2 h -32 v 216 l -53.2,-216 z m 203.6002,0 -52.8,313.2 h 35.6 l 6.8,-45.2 h 58.4 l 7.2,45.2 h 35.6 l -54.4,-313.2 z m 18.4,80.4 24.8,156.8 h -48.8 z m 98.0003,-80.4 v 313.2 h 36 v -146 h 27.2 c 22,0 28.4,7.6 28.4,27.2 v 118.8 h 36.4 v -117.6 c 0,-25.6 -8.8,-39.2 -24.4,-45.6 14.4,-6.4 22,-19.6 22,-44.4 v -43.6 c 0,-38.8 -23.6,-62 -62,-62 z m 36,34.8 h 24.8 c 18.8,0 28.8,11.2 28.8,31.6 v 40.8 c 0,20.4 -7.2,28.4 -28.8,28.4 h -24.8 z m 108.7994,-34.8 v 35.6 h 35.2 v 277.6 h 36.8 v -277.6 h 35.2 v -35.6 z"
         id="path49" />
    </g>
    <g
       id="text32"
       style="font-size:400px;line-height:443.191px;font-family:'Libel Suit';-inkscape-font-specification:'Libel Suit';white-space:pre;fill:#0c1713;stroke:#ffffff;stroke-width:0"
       transform="matrix(0.26458333,0,0,0.26458333,-81.142803,80.412862)"
       aria-label="DESIGNARTMUSICFOODCODE">
      <path
         style="fill:#333333"
         d="m 634.4,1463.9955 v 313.2 h 64.8 c 38.4,0 62.4,-23.2 62.4,-72 v -169.2 c 0,-48.8 -24,-72 -62.4,-72 z m 36.8,35.6 h 25.2 c 19.6,0 28.8,11.2 28.8,34 v 174 c 0,22.8 -9.2,34 -28.8,34 h -25.2 z m 125.20027,-35.6 v 313.2 h 103.6 v -35.6 h -66.8 v -108 h 47.2 v -35.6 h -47.2 v -98.4 h 66.8 v -35.6 z m 191.59986,-5.6 c -38.4,0 -63.6,26 -63.6,67.6 0,20 5.6,41.6 23.6,70 14.8,23.2 39.6,51.6 51.6,69.6 11.59997,18 15.59997,32.4 15.59997,46.8 0,23.2 -10,36.8 -29.99997,36.8 -18.8,0 -29.6,-13.2 -29.6,-28 v -7.6 l -34,-8.8 v 16.8 c 0,34 24.8,61.2 66,61.2 42.79997,0 62.79997,-29.2 62.79997,-75.2 0,-22.8 -5.2,-38.8 -17.6,-58.4 -14.4,-23.2 -43.59997,-59.6 -57.99997,-79.6 -10.4,-14.8 -16.4,-28 -16.4,-43.2 0,-18.4 9.2,-33.6 28.8,-33.6 17.19997,0 27.19997,11.6 27.19997,29.6 v 8.4 h 34 v -11.2 c 0,-36.4 -22.8,-61.2 -60.39997,-61.2 z m 92.39977,5.6 v 313.2 h 36.8 v -313.2 z m 107.2,57.2 c 0,-18 11.2,-27.2 28,-27.2 16,0 26.8,9.2 26.8,27.2 v 9.6 h 34 v -10.4 c 0,-38.4 -24.4,-62 -61.2,-62 -36.8,0 -63.2,23.6 -63.2,62 v 200.4 c 0,38.4 23.6,62 55.6,62 18.4,0 33.2,-8 43.2,-19.2 l 1.6,13.6 h 22.8 v -173.6 h -63.2 v 33.2 h 31.2 v 83.2 c 0,18 -12.8,27.2 -28.8,27.2 -16,0 -26.8,-9.2 -26.8,-27.2 z m 123.5999,-57.2 v 313.2 h 32 v -230.4 l 60.4,230.4 h 32.8 v -313.2 h -32 v 216 l -53.2,-216 z m 203.6002,0 -52.8,313.2 h 35.6 l 6.8,-45.2 h 58.4 l 7.2,45.2 h 35.6 l -54.4,-313.2 z m 18.4,80.4 24.8,156.8 h -48.8 z m 98.0002,-80.4 v 313.2 h 36 v -146 h 27.2 c 22,0 28.4,7.6 28.4,27.2 v 118.8 h 36.4 v -117.6 c 0,-25.6 -8.8,-39.2 -24.4,-45.6 14.4,-6.4 22,-19.6 22,-44.4 v -43.6 c 0,-38.8 -23.6,-62 -62,-62 z m 36,34.8 h 24.8 c 18.8,0 28.8,11.2 28.8,31.6 v 40.8 c 0,20.4 -7.2,28.4 -28.8,28.4 h -24.8 z m 108.7994,-34.8 v 35.6 h 35.2 v 277.6 h 36.8 v -277.6 h 35.2 v -35.6 z"
         id="path50" />
      <path
         style="fill:#e40066"
         d="m 1909.6,1463.9955 v 313.2 h 32.8 v -204.8 l 39.2,204.8 h 34 l 38.4,-202 v 202 h 32.8 v -313.2 H 2050 l -51.6,248.4 -48.8,-248.4 z m 213.1998,0 v 256 c 0,39.2 28,62.8 64,62.8 36.4,0 64.8,-23.6 64.8,-62.8 v -256 h -36 v 255.6 c 0,18 -11.6,27.6 -28.4,27.6 -16,0 -27.6,-9.6 -27.6,-27.6 v -255.6 z m 222.7999,-5.6 c -38.4,0 -63.6,26 -63.6,67.6 0,20 5.6,41.6 23.6,70 14.8,23.2 39.6,51.6 51.6,69.6 11.6,18 15.6,32.4 15.6,46.8 0,23.2 -10,36.8 -30,36.8 -18.8,0 -29.6,-13.2 -29.6,-28 v -7.6 l -34,-8.8 v 16.8 c 0,34 24.8,61.2 66,61.2 42.8,0 62.8,-29.2 62.8,-75.2 0,-22.8 -5.2,-38.8 -17.6,-58.4 -14.4,-23.2 -43.6,-59.6 -58,-79.6 -10.4,-14.8 -16.4,-28 -16.4,-43.2 0,-18.4 9.2,-33.6 28.8,-33.6 17.2,0 27.2,11.6 27.2,29.6 v 8.4 h 34 v -11.2 c 0,-36.4 -22.8,-61.2 -60.4,-61.2 z m 92.3999,5.6 v 313.2 h 36.8 v -313.2 z m 108,57.2 c 0,-18 10.8,-27.2 27.6,-27.2 16.4,0 26.4,9.2 26.4,27.2 v 9.6 h 34 v -10.4 c 0,-38.4 -23.6,-62 -60.8,-62 -37.2,0 -63.6,23.6 -63.6,62 v 200.4 c 0,38.4 27.2,62 61.6,62 34.8,0 62.8,-23.6 62.8,-62 v -16 l -34,8.8 v 6.4 c 0,18 -11.2,27.2 -27.2,27.2 -16,0 -26.8,-9.2 -26.8,-27.2 z"
         id="path51" />
      <path
         style="fill:#333333"
         d="m 2663.1994,1463.9955 v 313.2 h 36.8 v -133.2 h 52.4 v -35.6 h -52.4 v -108.8 h 71.2 v -35.6 z m 255.6002,57.2 c 0,-39.2 -28.8,-62.8 -64.4,-62.8 -36,0 -64.4,23.6 -64.4,62.8 v 198.8 c 0,39.2 28.4,62.8 64.4,62.8 35.6,0 64.4,-23.6 64.4,-62.8 z m -92.4,0.4 c 0,-18 11.6,-27.6 28,-27.6 16.4,0 28,9.6 28,27.6 v 198 c 0,18 -11.6,27.6 -28,27.6 -16.4,0 -28,-9.6 -28,-27.6 z m 253.9999,-0.4 c 0,-39.2 -28.8,-62.8 -64.4,-62.8 -36,0 -64.4,23.6 -64.4,62.8 v 198.8 c 0,39.2 28.4,62.8 64.4,62.8 35.6,0 64.4,-23.6 64.4,-62.8 z m -92.4,0.4 c 0,-18 11.6,-27.6 28,-27.6 16.4,0 28,9.6 28,27.6 v 198 c 0,18 -11.6,27.6 -28,27.6 -16.4,0 -28,-9.6 -28,-27.6 z m 127.1996,-57.6 v 313.2 h 64.8 c 38.4,0 62.4,-23.2 62.4,-72 v -169.2 c 0,-48.8 -24,-72 -62.4,-72 z m 36.8,35.6 h 25.2 c 19.6,0 28.8,11.2 28.8,34 v 174 c 0,22.8 -9.2,34 -28.8,34 h -25.2 z m 159.6002,21.6 c 0,-18 10.8,-27.2 27.6,-27.2 16.4,0 26.4,9.2 26.4,27.2 v 9.6 h 34 v -10.4 c 0,-38.4 -23.6,-62 -60.8,-62 -37.2,0 -63.6,23.6 -63.6,62 v 200.4 c 0,38.4 27.2,62 61.6,62 34.8,0 62.8,-23.6 62.8,-62 v -16 l -34,8.8 v 6.4 c 0,18 -11.2,27.2 -27.2,27.2 -16,0 -26.8,-9.2 -26.8,-27.2 z m 240.8002,0 c 0,-39.2 -28.8,-62.8 -64.4,-62.8 -36,0 -64.4,23.6 -64.4,62.8 v 198.8 c 0,39.2 28.4,62.8 64.4,62.8 35.6,0 64.4,-23.6 64.4,-62.8 z m -92.4,0.4 c 0,-18 11.6,-27.6 28,-27.6 16.4,0 28,9.6 28,27.6 v 198 c 0,18 -11.6,27.6 -28,27.6 -16.4,0 -28,-9.6 -28,-27.6 z m 127.1998,-57.6 v 313.2 h 64.8 c 38.4,0 62.4,-23.2 62.4,-72 v -169.2 c 0,-48.8 -24,-72 -62.4,-72 z m 36.8,35.6 h 25.2 c 19.6,0 28.8,11.2 28.8,34 v 174 c 0,22.8 -9.2,34 -28.8,34 h -25.2 z m 125.2003,-35.6 v 313.2 h 103.6 v -35.6 h -66.8 v -108 h 47.2 v -35.6 h -47.2 v -98.4 h 66.8 v -35.6 z"
         id="path52" />
    </g>
    <g
       id="text34"
       style="font-size:400px;line-height:443.191px;font-family:'Libel Suit';-inkscape-font-specification:'Libel Suit';white-space:pre;fill:#0c1713;stroke:#ffffff;stroke-width:0"
       transform="matrix(0.26458333,0,0,0.26458333,-80.243167,-5.0475549)"
       aria-label="CODEDESIGNARTMUSICFOOD">
      <path
         style="fill:#226ce0"
         d="m 668.8,1521.1955 c 0,-18 10.8,-27.2 27.6,-27.2 16.4,0 26.4,9.2 26.4,27.2 v 9.6 h 34 v -10.4 c 0,-38.4 -23.6,-62 -60.8,-62 -37.2,0 -63.6,23.6 -63.6,62 v 200.4 c 0,38.4 27.2,62 61.6,62 34.8,0 62.8,-23.6 62.8,-62 v -16 l -34,8.8 v 6.4 c 0,18 -11.2,27.2 -27.2,27.2 -16,0 -26.8,-9.2 -26.8,-27.2 z m 240.80012,0 c 0,-39.2 -28.8,-62.8 -64.4,-62.8 -36,0 -64.4,23.6 -64.4,62.8 v 198.8 c 0,39.2 28.4,62.8 64.4,62.8 35.6,0 64.4,-23.6 64.4,-62.8 z m -92.4,0.4 c 0,-18 11.6,-27.6 28,-27.6 16.4,0 28,9.6 28,27.6 v 198 c 0,18 -11.6,27.6 -28,27.6 -16.4,0 -28,-9.6 -28,-27.6 z m 127.19973,-57.6 v 313.2 h 64.79995 c 38.4,0 62.4,-23.2 62.4,-72 v -169.2 c 0,-48.8 -24,-72 -62.4,-72 z m 36.8,35.6 h 25.19995 c 19.6,0 28.8,11.2 28.8,34 v 174 c 0,22.8 -9.2,34 -28.8,34 h -25.19995 z m 125.20025,-35.6 v 313.2 h 103.6 v -35.6 h -66.8 v -108 h 47.2 v -35.6 h -47.2 v -98.4 h 66.8 v -35.6 z"
         id="path53" />
      <path
         style="fill:#333333"
         d="m 1240,1463.9955 v 313.2 h 64.8 c 38.4,0 62.4,-23.2 62.4,-72 v -169.2 c 0,-48.8 -24,-72 -62.4,-72 z m 36.8,35.6 h 25.2 c 19.6,0 28.8,11.2 28.8,34 v 174 c 0,22.8 -9.2,34 -28.8,34 h -25.2 z m 125.2002,-35.6 v 313.2 h 103.6 v -35.6 h -66.8 v -108 h 47.2 v -35.6 h -47.2 v -98.4 h 66.8 v -35.6 z m 191.5999,-5.6 c -38.4,0 -63.6,26 -63.6,67.6 0,20 5.6,41.6 23.6,70 14.8,23.2 39.6,51.6 51.6,69.6 11.6,18 15.6,32.4 15.6,46.8 0,23.2 -10,36.8 -30,36.8 -18.8,0 -29.6,-13.2 -29.6,-28 v -7.6 l -34,-8.8 v 16.8 c 0,34 24.8,61.2 66,61.2 42.8,0 62.8,-29.2 62.8,-75.2 0,-22.8 -5.2,-38.8 -17.6,-58.4 -14.4,-23.2 -43.6,-59.6 -58,-79.6 -10.4,-14.8 -16.4,-28 -16.4,-43.2 0,-18.4 9.2,-33.6 28.8,-33.6 17.2,0 27.2,11.6 27.2,29.6 v 8.4 h 34 v -11.2 c 0,-36.4 -22.8,-61.2 -60.4,-61.2 z m 92.3998,5.6 v 313.2 h 36.8 v -313.2 z m 107.2001,57.2 c 0,-18 11.2,-27.2 28,-27.2 16,0 26.8,9.2 26.8,27.2 v 9.6 h 34 v -10.4 c 0,-38.4 -24.4,-62 -61.2,-62 -36.8,0 -63.2,23.6 -63.2,62 v 200.4 c 0,38.4 23.6,62 55.6,62 18.4,0 33.2,-8 43.2,-19.2 l 1.6,13.6 h 22.8 v -173.6 h -63.2 v 33.2 h 31.2 v 83.2 c 0,18 -12.8,27.2 -28.8,27.2 -16,0 -26.8,-9.2 -26.8,-27.2 z m 123.5998,-57.2 v 313.2 h 32 v -230.4 l 60.4,230.4 h 32.8 v -313.2 h -32 v 216 l -53.2,-216 z m 203.6002,0 -52.8,313.2 h 35.6 l 6.8,-45.2 h 58.4 l 7.2,45.2 h 35.6 l -54.4,-313.2 z m 18.4,80.4 24.8,156.8 h -48.8 z m 98.0001,-80.4 v 313.2 h 36 v -146 h 27.2 c 22,0 28.4,7.6 28.4,27.2 v 118.8 h 36.4 v -117.6 c 0,-25.6 -8.8,-39.2 -24.4,-45.6 14.4,-6.4 22,-19.6 22,-44.4 v -43.6 c 0,-38.8 -23.6,-62 -62,-62 z m 36,34.8 h 24.8 c 18.8,0 28.8,11.2 28.8,31.6 v 40.8 c 0,20.4 -7.2,28.4 -28.8,28.4 h -24.8 z m 108.7995,-34.8 v 35.6 h 35.2 v 277.6 h 36.8 v -277.6 h 35.2 v -35.6 z m 133.6002,0 v 313.2 h 32.8 v -204.8 l 39.2,204.8 h 34 l 38.4,-202 v 202 h 32.8 v -313.2 h -36.8 l -51.6,248.4 -48.8,-248.4 z m 213.2,0 v 256 c 0,39.2 28,62.8 64,62.8 36.4,0 64.8,-23.6 64.8,-62.8 v -256 h -36 v 255.6 c 0,18 -11.6,27.6 -28.4,27.6 -16,0 -27.6,-9.6 -27.6,-27.6 v -255.6 z m 222.8,-5.6 c -38.4,0 -63.6,26 -63.6,67.6 0,20 5.6,41.6 23.6,70 14.8,23.2 39.6,51.6 51.6,69.6 11.6,18 15.6,32.4 15.6,46.8 0,23.2 -10,36.8 -30,36.8 -18.8,0 -29.6,-13.2 -29.6,-28 v -7.6 l -34,-8.8 v 16.8 c 0,34 24.8,61.2 66,61.2 42.8,0 62.8,-29.2 62.8,-75.2 0,-22.8 -5.2,-38.8 -17.6,-58.4 -14.4,-23.2 -43.6,-59.6 -58,-79.6 -10.4,-14.8 -16.4,-28 -16.4,-43.2 0,-18.4 9.2,-33.6 28.8,-33.6 17.2,0 27.2,11.6 27.2,29.6 v 8.4 h 34 v -11.2 c 0,-36.4 -22.8,-61.2 -60.4,-61.2 z m 92.3997,5.6 v 313.2 h 36.8 v -313.2 z m 108.0001,57.2 c 0,-18 10.8,-27.2 27.6,-27.2 16.4,0 26.4,9.2 26.4,27.2 v 9.6 h 34 v -10.4 c 0,-38.4 -23.6,-62 -60.8,-62 -37.2,0 -63.6,23.6 -63.6,62 v 200.4 c 0,38.4 27.2,62 61.6,62 34.8,0 62.8,-23.6 62.8,-62 v -16 l -34,8.8 v 6.4 c 0,18 -11.2,27.2 -27.2,27.2 -16,0 -26.8,-9.2 -26.8,-27.2 z m 117.1998,-57.2 v 313.2 h 36.8 v -133.2 h 52.4 v -35.6 h -52.4 v -108.8 h 71.2 v -35.6 z m 255.6003,57.2 c 0,-39.2 -28.8,-62.8 -64.4,-62.8 -36,0 -64.4,23.6 -64.4,62.8 v 198.8 c 0,39.2 28.4,62.8 64.4,62.8 35.6,0 64.4,-23.6 64.4,-62.8 z m -92.4,0.4 c 0,-18 11.6,-27.6 28,-27.6 16.4,0 28,9.6 28,27.6 v 198 c 0,18 -11.6,27.6 -28,27.6 -16.4,0 -28,-9.6 -28,-27.6 z m 253.9996,-0.4 c 0,-39.2 -28.8,-62.8 -64.4,-62.8 -36,0 -64.4,23.6 -64.4,62.8 v 198.8 c 0,39.2 28.4,62.8 64.4,62.8 35.6,0 64.4,-23.6 64.4,-62.8 z m -92.4,0.4 c 0,-18 11.6,-27.6 28,-27.6 16.4,0 28,9.6 28,27.6 v 198 c 0,18 -11.6,27.6 -28,27.6 -16.4,0 -28,-9.6 -28,-27.6 z m 127.1999,-57.6 v 313.2 h 64.8 c 38.4,0 62.4,-23.2 62.4,-72 v -169.2 c 0,-48.8 -24,-72 -62.4,-72 z m 36.8,35.6 h 25.2 c 19.6,0 28.8,11.2 28.8,34 v 174 c 0,22.8 -9.2,34 -28.8,34 h -25.2 z"
         id="path54" />
    </g>
    <g
       id="text38"
       style="font-size:400px;line-height:443.191px;font-family:'Libel Suit';-inkscape-font-specification:'Libel Suit';white-space:pre;fill:#0c1713;stroke:#ffffff;stroke-width:0"
       transform="matrix(0.26458333,0,0,0.26458333,-78.7615,-90.507973)"
       aria-label="ARTMUSICFOODCODEDESIGN">
      <path
         style="fill:#333333"
         d="m 676,1463.9955 -52.8,313.2 h 35.6 l 6.8,-45.2 H 724 l 7.2,45.2 h 35.6 l -54.4,-313.2 z m 18.4,80.4 24.8,156.8 h -48.8 z m 98.00018,-80.4 v 313.2 h 36 v -146 h 27.2 c 22,0 28.4,7.6 28.4,27.2 v 118.8 h 36.4 v -117.6 c 0,-25.6 -8.8,-39.2 -24.4,-45.6 14.4,-6.4 22,-19.6 22,-44.4 v -43.6 c 0,-38.8 -23.6,-62 -62,-62 z m 36,34.8 h 24.8 c 18.8,0 28.8,11.2 28.8,31.6 v 40.8 c 0,20.4 -7.2,28.4 -28.8,28.4 h -24.8 z m 108.79944,-34.8 v 35.6 h 35.2 v 277.6 h 36.79998 v -277.6 h 35.2 v -35.6 z m 133.60018,0 v 313.2 h 32.8 v -204.8 l 39.2,204.8 h 34 l 38.4,-202 v 202 h 32.8 v -313.2 h -36.8 l -51.6,248.4 -48.8,-248.4 z m 213.2,0 v 256 c 0,39.2 28,62.8 64,62.8 36.4,0 64.8,-23.6 64.8,-62.8 v -256 h -36 v 255.6 c 0,18 -11.6,27.6 -28.4,27.6 -16,0 -27.6,-9.6 -27.6,-27.6 v -255.6 z m 222.7999,-5.6 c -38.4,0 -63.6,26 -63.6,67.6 0,20 5.6,41.6 23.6,70 14.8,23.2 39.6,51.6 51.6,69.6 11.6,18 15.6,32.4 15.6,46.8 0,23.2 -10,36.8 -30,36.8 -18.8,0 -29.6,-13.2 -29.6,-28 v -7.6 l -34,-8.8 v 16.8 c 0,34 24.8,61.2 66,61.2 42.8,0 62.8,-29.2 62.8,-75.2 0,-22.8 -5.2,-38.8 -17.6,-58.4 -14.4,-23.2 -43.6,-59.6 -58,-79.6 -10.4,-14.8 -16.4,-28 -16.4,-43.2 0,-18.4 9.2,-33.6 28.8,-33.6 17.2,0 27.2,11.6 27.2,29.6 v 8.4 h 34 v -11.2 c 0,-36.4 -22.8,-61.2 -60.4,-61.2 z m 92.3998,5.6 v 313.2 h 36.8 v -313.2 z m 108,57.2 c 0,-18 10.8,-27.2 27.6,-27.2 16.4,0 26.4,9.2 26.4,27.2 v 9.6 h 34 v -10.4 c 0,-38.4 -23.6,-62 -60.8,-62 -37.2,0 -63.6,23.6 -63.6,62 v 200.4 c 0,38.4 27.2,62 61.6,62 34.8,0 62.8,-23.6 62.8,-62 v -16 l -34,8.8 v 6.4 c 0,18 -11.2,27.2 -27.2,27.2 -16,0 -26.8,-9.2 -26.8,-27.2 z m 117.1999,-57.2 v 313.2 h 36.8 v -133.2 h 52.4 v -35.6 h -52.4 v -108.8 h 71.2 v -35.6 z m 255.6002,57.2 c 0,-39.2 -28.8,-62.8 -64.4,-62.8 -36,0 -64.4,23.6 -64.4,62.8 v 198.8 c 0,39.2 28.4,62.8 64.4,62.8 35.6,0 64.4,-23.6 64.4,-62.8 z m -92.4,0.4 c 0,-18 11.6,-27.6 28,-27.6 16.4,0 28,9.6 28,27.6 v 198 c 0,18 -11.6,27.6 -28,27.6 -16.4,0 -28,-9.6 -28,-27.6 z m 253.9997,-0.4 c 0,-39.2 -28.8,-62.8 -64.4,-62.8 -36,0 -64.4,23.6 -64.4,62.8 v 198.8 c 0,39.2 28.4,62.8 64.4,62.8 35.6,0 64.4,-23.6 64.4,-62.8 z m -92.4,0.4 c 0,-18 11.6,-27.6 28,-27.6 16.4,0 28,9.6 28,27.6 v 198 c 0,18 -11.6,27.6 -28,27.6 -16.4,0 -28,-9.6 -28,-27.6 z m 127.1997,-57.6 v 313.2 h 64.8 c 38.4,0 62.4,-23.2 62.4,-72 v -169.2 c 0,-48.8 -24,-72 -62.4,-72 z m 36.8,35.6 h 25.2 c 19.6,0 28.8,11.2 28.8,34 v 174 c 0,22.8 -9.2,34 -28.8,34 h -25.2 z m 159.6003,21.6 c 0,-18 10.8,-27.2 27.6,-27.2 16.4,0 26.4,9.2 26.4,27.2 v 9.6 h 34 v -10.4 c 0,-38.4 -23.6,-62 -60.8,-62 -37.2,0 -63.6,23.6 -63.6,62 v 200.4 c 0,38.4 27.2,62 61.6,62 34.8,0 62.8,-23.6 62.8,-62 v -16 l -34,8.8 v 6.4 c 0,18 -11.2,27.2 -27.2,27.2 -16,0 -26.8,-9.2 -26.8,-27.2 z m 240.8001,0 c 0,-39.2 -28.8,-62.8 -64.4,-62.8 -36,0 -64.4,23.6 -64.4,62.8 v 198.8 c 0,39.2 28.4,62.8 64.4,62.8 35.6,0 64.4,-23.6 64.4,-62.8 z m -92.4,0.4 c 0,-18 11.6,-27.6 28,-27.6 16.4,0 28,9.6 28,27.6 v 198 c 0,18 -11.6,27.6 -28,27.6 -16.4,0 -28,-9.6 -28,-27.6 z m 127.1999,-57.6 v 313.2 h 64.8 c 38.4,0 62.4,-23.2 62.4,-72 v -169.2 c 0,-48.8 -24,-72 -62.4,-72 z m 36.8,35.6 h 25.2 c 19.6,0 28.8,11.2 28.8,34 v 174 c 0,22.8 -9.2,34 -28.8,34 h -25.2 z m 125.2002,-35.6 v 313.2 h 103.6 v -35.6 h -66.8 v -108 h 47.2 v -35.6 h -47.2 v -98.4 h 66.8 v -35.6 z"
         id="path55" />
      <path
         style="fill:#43c59e"
         d="m 3043.9994,1463.9955 v 313.2 h 64.8 c 38.4,0 62.4,-23.2 62.4,-72 v -169.2 c 0,-48.8 -24,-72 -62.4,-72 z m 36.8,35.6 h 25.2 c 19.6,0 28.8,11.2 28.8,34 v 174 c 0,22.8 -9.2,34 -28.8,34 h -25.2 z m 125.2002,-35.6 v 313.2 h 103.6 v -35.6 h -66.8 v -108 h 47.2 v -35.6 h -47.2 v -98.4 h 66.8 v -35.6 z m 191.5999,-5.6 c -38.4,0 -63.6,26 -63.6,67.6 0,20 5.6,41.6 23.6,70 14.8,23.2 39.6,51.6 51.6,69.6 11.6,18 15.6,32.4 15.6,46.8 0,23.2 -10,36.8 -30,36.8 -18.8,0 -29.6,-13.2 -29.6,-28 v -7.6 l -34,-8.8 v 16.8 c 0,34 24.8,61.2 66,61.2 42.8,0 62.8,-29.2 62.8,-75.2 0,-22.8 -5.2,-38.8 -17.6,-58.4 -14.4,-23.2 -43.6,-59.6 -58,-79.6 -10.4,-14.8 -16.4,-28 -16.4,-43.2 0,-18.4 9.2,-33.6 28.8,-33.6 17.2,0 27.2,11.6 27.2,29.6 v 8.4 h 34 v -11.2 c 0,-36.4 -22.8,-61.2 -60.4,-61.2 z m 92.3996,5.6 v 313.2 h 36.8 v -313.2 z m 107.2001,57.2 c 0,-18 11.2,-27.2 28,-27.2 16,0 26.8,9.2 26.8,27.2 v 9.6 h 34 v -10.4 c 0,-38.4 -24.4,-62 -61.2,-62 -36.8,0 -63.2,23.6 -63.2,62 v 200.4 c 0,38.4 23.6,62 55.6,62 18.4,0 33.2,-8 43.2,-19.2 l 1.6,13.6 h 22.8 v -173.6 h -63.2 v 33.2 h 31.2 v 83.2 c 0,18 -12.8,27.2 -28.8,27.2 -16,0 -26.8,-9.2 -26.8,-27.2 z m 123.6,-57.2 v 313.2 h 32 v -230.4 l 60.4,230.4 h 32.8 v -313.2 h -32 v 216 l -53.2,-216 z"
         id="path56" />
    </g>
    <g
       id="text43"
       style="font-size:400px;line-height:443.191px;font-family:'Libel Suit';-inkscape-font-specification:'Libel Suit';white-space:pre;fill:#0c1713;stroke:#ffffff;stroke-width:0"
       transform="matrix(0.26458333,0,0,0.26458333,-81.248637,-175.96839)"
       aria-label="FOODCODEDESIGNARTMUSIC">
      <path
         style="fill:#333333"
         d="m 634.4,1463.9955 v 313.2 h 36.8 v -133.2 h 52.4 v -35.6 h -52.4 v -108.8 h 71.2 v -35.6 z m 255.6002,57.2 c 0,-39.2 -28.8,-62.8 -64.4,-62.8 -36,0 -64.4,23.6 -64.4,62.8 v 198.8 c 0,39.2 28.4,62.8 64.4,62.8 35.6,0 64.4,-23.6 64.4,-62.8 z m -92.4,0.4 c 0,-18 11.6,-27.6 28,-27.6 16.4,0 28,9.6 28,27.6 v 198 c 0,18 -11.6,27.6 -28,27.6 -16.4,0 -28,-9.6 -28,-27.6 z m 253.9997,-0.4 c 0,-39.2 -28.8,-62.8 -64.39997,-62.8 -36,0 -64.4,23.6 -64.4,62.8 v 198.8 c 0,39.2 28.4,62.8 64.4,62.8 35.59997,0 64.39997,-23.6 64.39997,-62.8 z m -92.39997,0.4 c 0,-18 11.6,-27.6 28,-27.6 16.39997,0 27.99997,9.6 27.99997,27.6 v 198 c 0,18 -11.6,27.6 -27.99997,27.6 -16.4,0 -28,-9.6 -28,-27.6 z m 127.19977,-57.6 v 313.2 h 64.8 c 38.4,0 62.4,-23.2 62.4,-72 v -169.2 c 0,-48.8 -24,-72 -62.4,-72 z m 36.8,35.6 h 25.2 c 19.6,0 28.8,11.2 28.8,34 v 174 c 0,22.8 -9.2,34 -28.8,34 h -25.2 z m 159.6002,21.6 c 0,-18 10.8,-27.2 27.6,-27.2 16.4,0 26.4,9.2 26.4,27.2 v 9.6 h 34 v -10.4 c 0,-38.4 -23.6,-62 -60.8,-62 -37.2,0 -63.6,23.6 -63.6,62 v 200.4 c 0,38.4 27.2,62 61.6,62 34.8,0 62.8,-23.6 62.8,-62 v -16 l -34,8.8 v 6.4 c 0,18 -11.2,27.2 -27.2,27.2 -16,0 -26.8,-9.2 -26.8,-27.2 z m 240.8001,0 c 0,-39.2 -28.8,-62.8 -64.4,-62.8 -36,0 -64.4,23.6 -64.4,62.8 v 198.8 c 0,39.2 28.4,62.8 64.4,62.8 35.6,0 64.4,-23.6 64.4,-62.8 z m -92.4,0.4 c 0,-18 11.6,-27.6 28,-27.6 16.4,0 28,9.6 28,27.6 v 198 c 0,18 -11.6,27.6 -28,27.6 -16.4,0 -28,-9.6 -28,-27.6 z m 127.1998,-57.6 v 313.2 h 64.8 c 38.4,0 62.4,-23.2 62.4,-72 v -169.2 c 0,-48.8 -24,-72 -62.4,-72 z m 36.8,35.6 h 25.2 c 19.6,0 28.8,11.2 28.8,34 v 174 c 0,22.8 -9.2,34 -28.8,34 h -25.2 z m 125.2002,-35.6 v 313.2 H 1824 v -35.6 h -66.8 v -108 h 47.2 v -35.6 h -47.2 v -98.4 h 66.8 v -35.6 z m 133.5999,0 v 313.2 h 64.8 c 38.4,0 62.4,-23.2 62.4,-72 v -169.2 c 0,-48.8 -24,-72 -62.4,-72 z m 36.8,35.6 h 25.2 c 19.6,0 28.8,11.2 28.8,34 v 174 c 0,22.8 -9.2,34 -28.8,34 h -25.2 z m 125.2003,-35.6 v 313.2 h 103.6 v -35.6 h -66.8 v -108 h 47.2 v -35.6 h -47.2 v -98.4 h 66.8 v -35.6 z m 191.5999,-5.6 c -38.4,0 -63.6,26 -63.6,67.6 0,20 5.6,41.6 23.6,70 14.8,23.2 39.6,51.6 51.6,69.6 11.6,18 15.6,32.4 15.6,46.8 0,23.2 -10,36.8 -30,36.8 -18.8,0 -29.6,-13.2 -29.6,-28 v -7.6 l -34,-8.8 v 16.8 c 0,34 24.8,61.2 66,61.2 42.8,0 62.8,-29.2 62.8,-75.2 0,-22.8 -5.2,-38.8 -17.6,-58.4 -14.4,-23.2 -43.6,-59.6 -58,-79.6 -10.4,-14.8 -16.4,-28 -16.4,-43.2 0,-18.4 9.2,-33.6 28.8,-33.6 17.2,0 27.2,11.6 27.2,29.6 v 8.4 h 34 v -11.2 c 0,-36.4 -22.8,-61.2 -60.4,-61.2 z m 92.3998,5.6 v 313.2 h 36.8 v -313.2 z m 107.1999,57.2 c 0,-18 11.2,-27.2 28,-27.2 16,0 26.8,9.2 26.8,27.2 v 9.6 h 34 v -10.4 c 0,-38.4 -24.4,-62 -61.2,-62 -36.8,0 -63.2,23.6 -63.2,62 v 200.4 c 0,38.4 23.6,62 55.6,62 18.4,0 33.2,-8 43.2,-19.2 l 1.6,13.6 h 22.8 v -173.6 h -63.2 v 33.2 h 31.2 v 83.2 c 0,18 -12.8,27.2 -28.8,27.2 -16,0 -26.8,-9.2 -26.8,-27.2 z m 123.5999,-57.2 v 313.2 h 32 v -230.4 l 60.4,230.4 h 32.8 v -313.2 h -32 v 216 l -53.2,-216 z"
         id="path57" />
      <path
         style="fill:#d264b6"
         d="m 2734.3999,1463.9955 -52.8,313.2 h 35.6 l 6.8,-45.2 h 58.4 l 7.2,45.2 h 35.6 l -54.4,-313.2 z m 18.4,80.4 24.8,156.8 h -48.8 z m 98.0002,-80.4 v 313.2 h 36 v -146 h 27.2 c 22,0 28.4,7.6 28.4,27.2 v 118.8 h 36.4 v -117.6 c 0,-25.6 -8.8,-39.2 -24.4,-45.6 14.4,-6.4 22,-19.6 22,-44.4 v -43.6 c 0,-38.8 -23.6,-62 -62,-62 z m 36,34.8 h 24.8 c 18.8,0 28.8,11.2 28.8,31.6 v 40.8 c 0,20.4 -7.2,28.4 -28.8,28.4 h -24.8 z m 108.7995,-34.8 v 35.6 h 35.2 v 277.6 h 36.8 v -277.6 h 35.2 v -35.6 z"
         id="path58" />
      <path
         style="fill:#333333"
         d="m 3129.1998,1463.9955 v 313.2 h 32.8 v -204.8 l 39.2,204.8 h 34 l 38.4,-202 v 202 h 32.8 v -313.2 h -36.8 l -51.6,248.4 -48.8,-248.4 z m 213.2,0 v 256 c 0,39.2 28,62.8 64,62.8 36.4,0 64.8,-23.6 64.8,-62.8 v -256 h -36 v 255.6 c 0,18 -11.6,27.6 -28.4,27.6 -16,0 -27.6,-9.6 -27.6,-27.6 v -255.6 z m 222.8,-5.6 c -38.4,0 -63.6,26 -63.6,67.6 0,20 5.6,41.6 23.6,70 14.8,23.2 39.6,51.6 51.6,69.6 11.6,18 15.6,32.4 15.6,46.8 0,23.2 -10,36.8 -30,36.8 -18.8,0 -29.6,-13.2 -29.6,-28 v -7.6 l -34,-8.8 v 16.8 c 0,34 24.8,61.2 66,61.2 42.8,0 62.8,-29.2 62.8,-75.2 0,-22.8 -5.2,-38.8 -17.6,-58.4 -14.4,-23.2 -43.6,-59.6 -58,-79.6 -10.4,-14.8 -16.4,-28 -16.4,-43.2 0,-18.4 9.2,-33.6 28.8,-33.6 17.2,0 27.2,11.6 27.2,29.6 v 8.4 h 34 v -11.2 c 0,-36.4 -22.8,-61.2 -60.4,-61.2 z m 92.3997,5.6 v 313.2 h 36.8 v -313.2 z m 108.0001,57.2 c 0,-18 10.8,-27.2 27.6,-27.2 16.4,0 26.4,9.2 26.4,27.2 v 9.6 h 34 v -10.4 c 0,-38.4 -23.6,-62 -60.8,-62 -37.2,0 -63.6,23.6 -63.6,62 v 200.4 c 0,38.4 27.2,62 61.6,62 34.8,0 62.8,-23.6 62.8,-62 v -16 l -34,8.8 v 6.4 c 0,18 -11.2,27.2 -27.2,27.2 -16,0 -26.8,-9.2 -26.8,-27.2 z"
         id="path59" />
    </g>
  </g>
</svg>
